<svg width="21" height="19" viewBox="0 0 21 19" fill="none" xmlns="http://www.w3.org/2000/svg">
<path d="M19.3968 6.931L13.694 6.10219L11.1446 0.933932C11.075 0.792428 10.9605 0.677877 10.8189 0.608248C10.4641 0.433053 10.0328 0.579049 9.85538 0.933932L7.30606 6.10219L1.60323 6.931C1.446 6.95346 1.30225 7.02758 1.19219 7.13989C1.05914 7.27665 0.985817 7.46063 0.988344 7.65142C0.990871 7.84221 1.06904 8.02419 1.20567 8.15737L5.33174 12.1801L4.35694 17.8605C4.33408 17.9926 4.3487 18.1285 4.39915 18.2528C4.44959 18.377 4.53384 18.4847 4.64235 18.5635C4.75085 18.6423 4.87926 18.6891 5.01302 18.6986C5.14678 18.7082 5.28054 18.68 5.39913 18.6174L10.5 15.9356L15.6009 18.6174C15.7401 18.6916 15.9019 18.7163 16.0568 18.6893C16.4477 18.6219 16.7105 18.2513 16.6431 17.8605L15.6683 12.1801L19.7943 8.15737C19.9066 8.04731 19.9808 7.90356 20.0032 7.74633C20.0639 7.35327 19.7898 6.9894 19.3968 6.931Z" fill="#FF6B59"/>
</svg>
